<svg data-testid="icon" name="crosshair" size="16" fill="#5D3EBC" version="1.1" xmlns="http://www.w3.org/2000/svg" viewBox="0 0 32 32" class="style__Icon-sc-__sc-hqksj3-1 bslsXn"><path d="M32 16c0-8.747-7.040-16-16-16v0 0 0c-8.747 0-16 7.253-16 16s7.040 16 16 16c0 0 0 0 0 0s0 0 0 0c8.747 0 16-7.253 16-16zM17.707 28.373v-3.84c0-0.853-0.853-1.707-1.707-1.707s-1.707 0.853-1.707 1.707v3.84c-5.547-0.853-10.027-5.12-10.667-10.667h3.84c0.853 0 1.707-0.853 1.707-1.707s-0.853-1.707-1.707-1.707h-3.84c0.853-5.547 5.12-10.027 10.667-10.667v3.84c0 0.853 0.853 1.707 1.707 1.707s1.707-0.853 1.707-1.707v-3.84c5.547 0.853 10.027 5.12 10.667 10.667h-3.84c-0.853 0-1.707 0.853-1.707 1.707s0.853 1.707 1.707 1.707h3.84c-0.64 5.547-5.12 10.027-10.667 10.667z" class="style__Path-sc-__sc-hqksj3-2 lcjQMU"></path></svg>